<?xml version="1.0" encoding="UTF-8" standalone="no"?>
<!DOCTYPE svg PUBLIC "-//W3C//DTD SVG 1.1//EN"
 "http://www.w3.org/Graphics/SVG/1.1/DTD/svg11.dtd">
<!-- Generated by graphviz version 2.47.0 (20210316.0004)
 -->
<!-- Title: dependencies Pages: 1 -->
<svg width="504pt" height="211pt"
 viewBox="0.00 0.00 504.00 211.00" xmlns="http://www.w3.org/2000/svg" xmlns:xlink="http://www.w3.org/1999/xlink">
<g id="graph0" class="graph" transform="scale(1 1) rotate(0) translate(4 207)">
<title>dependencies</title>
<polygon fill="white" stroke="transparent" points="-4,4 -4,-207 500,-207 500,4 -4,4"/>
<text text-anchor="start" x="227.01" y="-42.4" font-family="sans-serif" font-weight="bold" font-size="14.00">Legend</text>
<polygon fill="#ffffb3" stroke="transparent" points="14,-10 14,-30 34,-30 34,-10 14,-10"/>
<text text-anchor="start" x="37.63" y="-15.4" font-family="sans-serif" font-size="14.00"> &#160;Declarations</text>
<polygon fill="#8dd3c7" stroke="transparent" points="127,-10 127,-30 147,-30 147,-10 127,-10"/>
<text text-anchor="start" x="150.73" y="-15.4" font-family="sans-serif" font-size="14.00"> &#160;Module</text>
<polygon fill="#80b1d3" stroke="transparent" points="213,-10 213,-30 233,-30 233,-10 213,-10"/>
<text text-anchor="start" x="236.78" y="-15.4" font-family="sans-serif" font-size="14.00"> &#160;Bootstrap</text>
<polygon fill="#fdb462" stroke="transparent" points="310,-10 310,-30 330,-30 330,-10 310,-10"/>
<text text-anchor="start" x="333.67" y="-15.4" font-family="sans-serif" font-size="14.00"> &#160;Providers</text>
<polygon fill="#fb8072" stroke="transparent" points="406,-10 406,-30 426,-30 426,-10 406,-10"/>
<text text-anchor="start" x="429.73" y="-15.4" font-family="sans-serif" font-size="14.00"> &#160;Exports</text>
<g id="clust1" class="cluster">
<title>cluster_SignupPageModule</title>
<polygon fill="none" stroke="black" stroke-dasharray="1,5" points="39.5,-70 39.5,-195 456.5,-195 456.5,-70 39.5,-70"/>
</g>
<g id="clust2" class="cluster">
<title>cluster_SignupPageModule_declarations</title>
<polygon fill="none" stroke="black" points="350.5,-78 350.5,-130 448.5,-130 448.5,-78 350.5,-78"/>
</g>
<g id="clust4" class="cluster">
<title>cluster_SignupPageModule_imports</title>
<polygon fill="none" stroke="black" points="47.5,-78 47.5,-130 342.5,-130 342.5,-78 47.5,-78"/>
</g>
<!-- SignupPage -->
<g id="node1" class="node">
<title>SignupPage</title>
<polygon fill="#ffffb3" stroke="black" points="440.89,-122 358.11,-122 358.11,-86 440.89,-86 440.89,-122"/>
<text text-anchor="middle" x="399.5" y="-99.8" font-family="Times,serif" font-size="14.00">SignupPage</text>
</g>
<!-- SignupPageModule -->
<g id="node2" class="node">
<title>SignupPageModule</title>
<polygon fill="#8dd3c7" stroke="black" points="352.94,-187 349.94,-191 328.94,-191 325.94,-187 226.06,-187 226.06,-151 352.94,-151 352.94,-187"/>
<text text-anchor="middle" x="289.5" y="-164.8" font-family="Times,serif" font-size="14.00">SignupPageModule</text>
</g>
<!-- SignupPage&#45;&gt;SignupPageModule -->
<g id="edge1" class="edge">
<title>SignupPage&#45;&gt;SignupPageModule</title>
<path fill="none" stroke="black" d="M357.84,-104C349.57,-104 343.38,-104 343.38,-104 343.38,-104 343.38,-140.89 343.38,-140.89"/>
<polygon fill="black" stroke="black" points="339.88,-140.89 343.38,-150.89 346.88,-140.89 339.88,-140.89"/>
</g>
<!-- InputModule -->
<g id="node3" class="node">
<title>InputModule</title>
<polygon fill="#8dd3c7" stroke="black" points="334.1,-122 331.1,-126 310.1,-126 307.1,-122 244.9,-122 244.9,-86 334.1,-86 334.1,-122"/>
<text text-anchor="middle" x="289.5" y="-99.8" font-family="Times,serif" font-size="14.00">InputModule</text>
</g>
<!-- InputModule&#45;&gt;SignupPageModule -->
<g id="edge2" class="edge">
<title>InputModule&#45;&gt;SignupPageModule</title>
<path fill="none" stroke="black" d="M289.5,-122.11C289.5,-122.11 289.5,-140.99 289.5,-140.99"/>
<polygon fill="black" stroke="black" points="286,-140.99 289.5,-150.99 293,-140.99 286,-140.99"/>
</g>
<!-- SignupPageRoutingModule -->
<g id="node4" class="node">
<title>SignupPageRoutingModule</title>
<polygon fill="#8dd3c7" stroke="black" points="227.05,-122 224.05,-126 203.05,-126 200.05,-122 55.95,-122 55.95,-86 227.05,-86 227.05,-122"/>
<text text-anchor="middle" x="141.5" y="-99.8" font-family="Times,serif" font-size="14.00">SignupPageRoutingModule</text>
</g>
<!-- SignupPageRoutingModule&#45;&gt;SignupPageModule -->
<g id="edge3" class="edge">
<title>SignupPageRoutingModule&#45;&gt;SignupPageModule</title>
<path fill="none" stroke="black" d="M227.38,-104C232.79,-104 236.11,-104 236.11,-104 236.11,-104 236.11,-140.89 236.11,-140.89"/>
<polygon fill="black" stroke="black" points="232.61,-140.89 236.11,-150.89 239.61,-140.89 232.61,-140.89"/>
</g>
</g>
</svg>
